<svg width="1200" height="800" xmlns="http://www.w3.org/2000/svg">
  <defs>
    <style>
      .title { font-family: Arial, sans-serif; font-size: 20px; font-weight: bold; fill: #2c3e50; }
      .component { font-family: Arial, sans-serif; font-size: 14px; font-weight: bold; fill: #ffffff; }
      .function { font-family: Arial, sans-serif; font-size: 11px; fill: #34495e; }
      .description { font-family: Arial, sans-serif; font-size: 10px; fill: #7f8c8d; }
      .arrow { stroke: #34495e; stroke-width: 2; fill: none; marker-end: url(#arrowhead); }
      .plugin-arrow { stroke: #27ae60; stroke-width: 2; fill: none; marker-end: url(#pluginhead); }
      .data-arrow { stroke: #3498db; stroke-width: 2; fill: none; marker-end: url(#datahead); }
      .core-box { fill: #3f5aa4; stroke: #2c3e50; stroke-width: 2; }
      .plugin-box { fill: #27ae60; stroke: #1e8449; stroke-width: 2; }
      .data-box { fill: #3498db; stroke: #2980b9; stroke-width: 2; }
      .api-box { fill: #e74c3c; stroke: #c0392b; stroke-width: 2; }
      .util-box { fill: #9b59b6; stroke: #8e44ad; stroke-width: 2; }
    </style>
    
    <marker id="arrowhead" markerWidth="10" markerHeight="7" refX="9" refY="3.5" orient="auto">
      <polygon points="0 0, 10 3.5, 0 7" fill="#34495e"/>
    </marker>
    
    <marker id="pluginhead" markerWidth="10" markerHeight="7" refX="9" refY="3.5" orient="auto">
      <polygon points="0 0, 10 3.5, 0 7" fill="#27ae60"/>
    </marker>
    
    <marker id="datahead" markerWidth="10" markerHeight="7" refX="9" refY="3.5" orient="auto">
      <polygon points="0 0, 10 3.5, 0 7" fill="#3498db"/>
    </marker>
  </defs>

  <!-- Title -->
  <text x="600" y="30" text-anchor="middle" class="title">Table Management System - Component Architecture</text>

  <!-- Main Application Layer -->
  <rect x="50" y="60" width="200" height="100" rx="10" class="core-box"/>
  <text x="150" y="85" text-anchor="middle" class="component">main.js</text>
  <text x="150" y="105" text-anchor="middle" class="function">Application Entry Point</text>
  <text x="60" y="125" class="description">• Plugin orchestration</text>
  <text x="60" y="140" class="description">• Schema configuration</text>
  <text x="60" y="155" class="description">• redraw() coordination</text>

  <!-- Core Table System -->
  <rect x="450" y="200" width="300" height="120" rx="10" class="core-box"/>
  <text x="600" y="225" text-anchor="middle" class="component">Core Table System</text>
  
  <!-- Table Component -->
  <rect x="470" y="240" width="120" height="70" rx="5" fill="#5a7bc4" stroke="#3f5aa4" stroke-width="1"/>
  <text x="530" y="260" text-anchor="middle" class="component" style="font-size: 12px;">table.js</text>
  <text x="480" y="275" class="description">initTable()</text>
  <text x="480" y="285" class="description">Column, Row</text>
  <text x="480" y="295" class="description">Cell rendering</text>

  <!-- Utils -->
  <rect x="610" y="240" width="120" height="70" rx="5" fill="#b370d6" stroke="#9b59b6" stroke-width="1"/>
  <text x="670" y="260" text-anchor="middle" class="component" style="font-size: 12px;">lib/utils.js</text>
  <text x="620" y="275" class="description">create()</text>
  <text x="620" y="285" class="description">setContent()</text>
  <text x="620" y="295" class="description">DOM helpers</text>

  <!-- Plugin System -->
  <rect x="50" y="400" width="700" height="150" rx="10" fill="#ecf0f1" stroke="#bdc3c7" stroke-width="2"/>
  <text x="400" y="425" text-anchor="middle" class="component" style="fill: #2c3e50;">Plugin System</text>

  <!-- Individual Plugins -->
  <!-- Editing Plugin -->
  <rect x="70" y="440" width="120" height="90" rx="5" class="plugin-box"/>
  <text x="130" y="460" text-anchor="middle" class="component" style="font-size: 12px;">editing.js</text>
  <text x="80" y="475" class="description" style="fill: white;">CRUD Operations</text>
  <text x="80" y="485" class="description" style="fill: white;">Modal dialogs</text>
  <text x="80" y="495" class="description" style="fill: white;">Form generation</text>
  <text x="80" y="505" class="description" style="fill: white;">Action buttons</text>
  <text x="80" y="515" class="description" style="fill: white;">+ Actions column</text>

  <!-- Sorting Plugin -->
  <rect x="210" y="440" width="120" height="90" rx="5" class="plugin-box"/>
  <text x="270" y="460" text-anchor="middle" class="component" style="font-size: 12px;">sorting.js</text>
  <text x="220" y="475" class="description" style="fill: white;">Column sorting</text>
  <text x="220" y="485" class="description" style="fill: white;">Sort buttons</text>
  <text x="220" y="495" class="description" style="fill: white;">Query transform</text>
  <text x="220" y="505" class="description" style="fill: white;">+ Header row</text>

  <!-- Filtering Plugin -->
  <rect x="350" y="440" width="120" height="90" rx="5" class="plugin-box"/>
  <text x="410" y="460" text-anchor="middle" class="component" style="font-size: 12px;">filtering.js</text>
  <text x="360" y="475" class="description" style="fill: white;">Column filters</text>
  <text x="360" y="485" class="description" style="fill: white;">Text/Select/Range</text>
  <text x="360" y="495" class="description" style="fill: white;">Filter controls</text>
  <text x="360" y="505" class="description" style="fill: white;">+ Filter row</text>

  <!-- Pagination Plugin -->
  <rect x="490" y="440" width="120" height="90" rx="5" class="plugin-box"/>
  <text x="550" y="460" text-anchor="middle" class="component" style="font-size: 12px;">pagination.js</text>
  <text x="500" y="475" class="description" style="fill: white;">Page controls</text>
  <text x="500" y="485" class="description" style="fill: white;">Page size select</text>
  <text x="500" y="495" class="description" style="fill: white;">Status display</text>
  <text x="500" y="505" class="description" style="fill: white;">+ Footer controls</text>

  <!-- Searching Plugin -->
  <rect x="630" y="440" width="120" height="90" rx="5" class="plugin-box"/>
  <text x="690" y="460" text-anchor="middle" class="component" style="font-size: 12px;">searching.js</text>
  <text x="640" y="475" class="description" style="fill: white;">Global search</text>
  <text x="640" y="485" class="description" style="fill: white;">Search input</text>
  <text x="640" y="495" class="description" style="fill: white;">Query transform</text>
  <text x="640" y="505" class="description" style="fill: white;">+ Search bar</text>

  <!-- Data Layer -->
  <rect x="850" y="200" width="300" height="120" rx="10" class="data-box"/>
  <text x="1000" y="225" text-anchor="middle" class="component">Data Layer</text>
  
  <!-- Data Component -->
  <rect x="870" y="240" width="120" height="70" rx="5" fill="#5dade2" stroke="#3498db" stroke-width="1"/>
  <text x="930" y="260" text-anchor="middle" class="component" style="font-size: 12px;">data.js</text>
  <text x="880" y="275" class="description">Data transformation</text>
  <text x="880" y="285" class="description">CRUD operations</text>
  <text x="880" y="295" class="description">Query building</text>

  <!-- Server Component -->
  <rect x="1010" y="240" width="120" height="70" rx="5" fill="#5dade2" stroke="#3498db" stroke-width="1"/>
  <text x="1070" y="260" text-anchor="middle" class="component" style="font-size: 12px;">server.js</text>
  <text x="1020" y="275" class="description">HTTP client</text>
  <text x="1020" y="285" class="description">REST API</text>
  <text x="1020" y="295" class="description">Request handling</text>

  <!-- External API -->
  <rect x="950" y="400" width="150" height="80" rx="10" class="api-box"/>
  <text x="1025" y="425" text-anchor="middle" class="component">REST API Server</text>
  <text x="960" y="445" class="description" style="fill: white;">GET /api/records</text>
  <text x="960" y="455" class="description" style="fill: white;">POST /api/records</text>
  <text x="960" y="465" class="description" style="fill: white;">PUT /api/records/:id</text>
  <text x="960" y="475" class="description" style="fill: white;">DELETE /api/records/:id</text>

  <!-- Browser/DOM -->
  <rect x="450" y="600" width="300" height="80" rx="10" fill="#34495e" stroke="#2c3e50" stroke-width="2"/>
  <text x="600" y="625" text-anchor="middle" class="component">Browser DOM</text>
  <text x="460" y="645" class="description" style="fill: white;">CSS Grid Layout • Event Handling • Modal Management</text>
  <text x="460" y="665" class="description" style="fill: white;">Responsive Design • Accessibility • User Interactions</text>

  <!-- Arrows showing data flow -->
  
  <!-- Main to Core Table -->
  <line x1="250" y1="120" x2="450" y2="250" class="arrow"/>
  <text x="320" y="175" class="description">Initializes</text>

  <!-- Plugins to Core Table -->
  <line x1="130" y1="440" x2="500" y2="320" class="plugin-arrow"/>
  <line x1="270" y1="440" x2="530" y2="320" class="plugin-arrow"/>
  <line x1="410" y1="440" x2="570" y2="320" class="plugin-arrow"/>
  <line x1="550" y1="440" x2="600" y2="320" class="plugin-arrow"/>
  <line x1="690" y1="440" x2="650" y2="320" class="plugin-arrow"/>

  <!-- Core to Data Layer -->
  <line x1="750" y1="260" x2="850" y2="260" class="data-arrow"/>
  <text x="780" y="250" class="description">Uses</text>

  <!-- Data to Server -->
  <line x1="990" y1="280" x2="1010" y2="280" class="arrow"/>

  <!-- Server to API -->
  <line x1="1070" y1="310" x2="1025" y2="400" class="arrow"/>

  <!-- Core Table to DOM -->
  <line x1="600" y1="320" x2="600" y2="600" class="arrow"/>
  <text x="610" y="460" class="description">Renders to</text>

  <!-- Main to Plugins (coordination) -->
  <line x1="150" y1="160" x2="130" y2="440" class="arrow"/>
  <line x1="150" y1="160" x2="270" y2="440" class="arrow"/>
  <line x1="150" y1="160" x2="410" y2="440" class="arrow"/>
  <line x1="150" y1="160" x2="550" y2="440" class="arrow"/>
  <line x1="150" y1="160" x2="690" y2="440" class="arrow"/>

  <!-- Legend -->
  <rect x="50" y="720" width="500" height="60" rx="5" fill="#ecf0f1" stroke="#bdc3c7" stroke-width="1"/>
  <text x="60" y="740" class="component" style="fill: #2c3e50; font-size: 12px;">Legend:</text>
  
  <line x1="60" y1="750" x2="90" y2="750" class="arrow"/>
  <text x="100" y="755" class="description">Data Flow</text>
  
  <line x1="180" y1="750" x2="210" y2="750" class="plugin-arrow"/>
  <text x="220" y="755" class="description">Plugin Integration</text>
  
  <line x1="330" y1="750" x2="360" y2="750" class="data-arrow"/>
  <text x="370" y="755" class="description">API Communication</text>

  <rect x="60" y="760" width="15" height="10" class="core-box"/>
  <text x="85" y="770" class="description">Core System</text>
  
  <rect x="160" y="760" width="15" height="10" class="plugin-box"/>
  <text x="185" y="770" class="description">Plugins</text>
  
  <rect x="240" y="760" width="15" height="10" class="data-box"/>
  <text x="265" y="770" class="description">Data Layer</text>
  
  <rect x="340" y="760" width="15" height="10" class="api-box"/>
  <text x="365" y="770" class="description">External API</text>

</svg>